<svg width="282" height="56" fill="none" xmlns="http://www.w3.org/2000/svg"><path d="m10 5 141-5-10 48L0 53 10 5Z" fill="#BBB96C"/><path d="M40.813 26.17c-.029-1.055-.166-1.887-.41-2.496-.246-.608-.636-1.064-1.172-1.366-.535-.302-1.235-.485-2.098-.55-.864-.064-1.928-.08-3.193-.046l-6.774.183c-1.125.03-2.073.091-2.844.183-.763.082-1.392.23-1.887.446-.495.216-.874.516-1.136.901-.262.385-.447.892-.553 1.519-.106.627-.155 1.398-.148 2.312.007.905.027 1.99.061 3.256.034 1.265.073 2.354.115 3.267.05.904.146 1.667.286 2.287.14.62.347 1.116.62 1.487.283.37.677.65 1.183.838.507.189 1.143.308 1.91.358.774.04 1.724.045 2.848.015l6.787-.183a35.073 35.073 0 0 0 2.542-.148c.71-.072 1.314-.185 1.81-.339.498-.154.897-.358 1.197-.613.301-.254.53-.568.687-.941.166-.383.272-.834.32-1.354a16.22 16.22 0 0 0 .042-1.848l-.034-1.265-10.148.274-.057-2.108 12.678-.343.091 3.374c.023.843-.009 1.61-.096 2.297a6.058 6.058 0 0 1-.517 1.834 4.398 4.398 0 0 1-1.03 1.4c-.438.398-.996.734-1.675 1.008-.679.264-1.49.467-2.437.606-.945.149-2.05.24-3.316.275l-6.787.183c-1.546.041-2.853-.02-3.922-.184-1.059-.157-1.936-.414-2.632-.773-.696-.369-1.24-.837-1.634-1.407-.384-.57-.675-1.244-.872-2.02a14.624 14.624 0 0 1-.361-2.642 121.4 121.4 0 0 1-.128-3.267 123.179 123.179 0 0 1-.049-3.27c0-.984.073-1.87.219-2.656.154-.787.408-1.475.762-2.065.362-.59.88-1.083 1.555-1.48.675-.405 1.537-.714 2.587-.927 1.058-.222 2.36-.354 3.906-.395l6.774-.183c1.265-.034 2.374-.003 3.326.095.952.088 1.774.246 2.466.474.691.219 1.266.506 1.724.863.467.357.84.782 1.116 1.276.286.493.49 1.055.613 1.684.122.63.194 1.332.215 2.105l-2.53.068Zm31.545 13.074-2.53.069-.103-3.796a26.885 26.885 0 0 0-.082-1.58c-.03-.448-.114-.828-.255-1.14a1.65 1.65 0 0 0-.613-.75c-.278-.185-.669-.324-1.172-.416-.504-.092-1.143-.145-1.917-.16a51.584 51.584 0 0 0-2.835.012l-11.373.307.216 8.012-2.53.069-.547-20.243 14.325-.387c1.547-.041 2.849-.02 3.906.066 1.066.077 1.945.216 2.636.417.7.2 1.239.459 1.616.774.387.315.67.69.848 1.124.188.435.302.924.343 1.468.05.544.084 1.145.102 1.805a11.98 11.98 0 0 1-.124 2.232c-.098.635-.28 1.181-.55 1.637a3.222 3.222 0 0 1-1.09 1.11c-.46.277-1.039.477-1.739.601.706.087 1.273.256 1.702.508a2.73 2.73 0 0 1 1.003 1.002c.24.416.403.912.489 1.49.095.578.152 1.236.172 1.974l.102 3.795Zm-20.937-9.563 11.795-.319a63.314 63.314 0 0 0 2.832-.129c.772-.064 1.407-.156 1.905-.275.498-.12.88-.28 1.147-.48.267-.2.458-.46.573-.78.123-.32.187-.7.193-1.14.014-.448.013-.98-.004-1.595a23.623 23.623 0 0 0-.079-1.475c-.029-.413-.113-.758-.252-1.035a1.464 1.464 0 0 0-.611-.656c-.277-.16-.667-.277-1.17-.351-.504-.083-1.142-.128-1.916-.133-.765-.006-1.71.007-2.835.037l-11.795.318.217 8.013Zm49.874-11.475.273 10.121c.032 1.195.044 2.285.036 3.27 0 .984-.077 1.87-.232 2.657-.146.786-.395 1.474-.749 2.064-.353.59-.867 1.088-1.542 1.493-.675.396-1.542.7-2.6.914-1.049.222-2.347.353-3.893.395l-5.93.16c-1.547.042-2.854-.02-3.922-.184-1.06-.156-1.937-.414-2.633-.773-.695-.368-1.24-.837-1.633-1.407-.385-.57-.676-1.243-.873-2.02a14.624 14.624 0 0 1-.361-2.641 121.65 121.65 0 0 1-.128-3.268l-.273-10.12 2.53-.07.274 10.122c.034 1.265.072 2.354.114 3.268.051.904.146 1.666.286 2.287.14.62.347 1.116.62 1.487.283.37.677.65 1.184.838.506.189 1.142.308 1.908.357.775.04 1.725.046 2.85.016l5.93-.16c1.116-.03 2.06-.087 2.831-.17.771-.09 1.4-.244 1.887-.459.495-.216.874-.516 1.136-.901.262-.385.446-.891.552-1.518.115-.628.17-1.394.163-2.3a173.13 173.13 0 0 0-.062-3.269l-.287-10.12 2.544-.07Zm26.531-.717 2.53-.068.547 20.243-2.531.068-.25-9.278-18.556.501.251 9.278-2.531.068-.546-20.242 2.53-.069.239 8.857 18.556-.502-.239-8.856Z" fill="#556C40"/><path d="m40.813 26.17-1.154.03.031 1.154 1.154-.031-.031-1.154Zm-.41-2.496 1.07-.43-1.07.43Zm-16.08-1.596.123 1.147.012-.002-.136-1.145Zm-3.725 5.178 1.154-.01-1.154.01Zm.176 6.523-1.153.053v.012l1.153-.065Zm.906 3.774-.928.686.005.007.006.007.917-.7Zm3.092 1.196-.074 1.151h.007l.007.001.06-1.152Zm15.872-2.21-1.059-.458-.005.012 1.064.447Zm.32-1.353 1.149.105v-.002l-1.15-.103Zm.008-3.113 1.154-.03-.032-1.154-1.153.03.031 1.154Zm-10.148.274-1.153.031.031 1.154 1.153-.031-.03-1.154Zm-.057-2.108-.03-1.154-1.154.031.03 1.154 1.154-.031Zm12.678-.343 1.154-.03-.031-1.154-1.154.03.031 1.154Zm-.005 5.672 1.145.146v-.002l-1.145-.145Zm-.517 1.833-1.043-.494-.003.006 1.046.488Zm-2.705 2.408.42 1.075.011-.005-.43-1.07Zm-2.437.606-.168-1.141-.01.001.178 1.14Zm-14.025.273.176-1.14-.008-.001-.168 1.142Zm-2.632-.773-.54 1.02.01.006.53-1.026ZM19.49 38.51l-.956.645.007.01.95-.655Zm-.872-2.02-1.121.27.003.013 1.118-.284Zm-.32-11.835-1.132-.223-.002.012 1.135.21Zm.763-2.065-.984-.604-.006.01.99.594Zm1.555-1.48.585.995.01-.005-.595-.99Zm2.587-.927.23 1.131.007-.001-.237-1.13Zm14.006-.483-.117 1.148h.01l.107-1.148Zm2.466.474-.36 1.096.012.004.348-1.1Zm1.724.863-.709.91.009.007.7-.917Zm1.116 1.276-1.006.564.004.007.004.007.998-.578Zm.828 3.789.031 1.153 1.154-.03-.032-1.154-1.153.03Zm-1.377.037c-.03-1.119-.175-2.105-.493-2.894l-2.141.861c.172.428.3 1.105.327 2.095l2.307-.062Zm-.493-2.894c-.336-.835-.895-1.501-1.675-1.941l-1.134 2.01c.292.165.514.409.668.792l2.14-.861Zm-1.675-1.941c-.73-.412-1.611-.623-2.58-.696l-.172 2.302c.76.056 1.278.212 1.618.404l1.134-2.01Zm-2.58-.696c-.915-.068-2.021-.083-3.31-.048l.063 2.307c1.242-.034 2.264-.018 3.076.043l.172-2.302Zm-3.31-.048-6.773.183.062 2.307 6.774-.183-.062-2.307Zm-6.773.183c-1.146.03-2.13.093-2.948.19l.27 2.292a31.125 31.125 0 0 1 2.74-.175l-.062-2.307Zm-2.936.188c-.835.09-1.587.259-2.225.536l.922 2.116c.353-.154.859-.283 1.55-.357l-.247-2.295Zm-2.225.536c-.662.288-1.226.718-1.63 1.31l1.909 1.299c.12-.178.314-.35.643-.493l-.922-2.116Zm-1.63 1.31c-.382.563-.611 1.24-.735 1.975l2.275.385c.088-.52.227-.854.369-1.061l-1.908-1.299Zm-.735 1.975c-.122.716-.173 1.558-.165 2.514l2.308-.018c-.007-.873.04-1.572.132-2.11l-2.275-.386Zm-.165 2.513c.007.916.027 2.009.062 3.279l2.307-.063c-.034-1.26-.055-2.337-.061-3.233l-2.308.017Zm.062 3.279c.034 1.27.072 2.367.115 3.29l2.306-.107a172.93 172.93 0 0 1-.114-3.246l-2.307.063Zm.116 3.3c.053.944.154 1.774.312 2.477l2.252-.508c-.122-.538-.212-1.233-.26-2.097l-2.304.129Zm.312 2.477c.163.72.42 1.38.818 1.919l1.856-1.372c-.15-.203-.305-.534-.422-1.054l-2.252.507Zm.829 1.933c.434.57 1.02.968 1.698 1.22l.805-2.163c-.335-.125-.538-.286-.668-.457l-1.835 1.4Zm1.698 1.22c.645.24 1.401.373 2.237.427l.149-2.303c-.697-.045-1.214-.15-1.58-.287l-.806 2.163Zm2.25.428c.816.043 1.799.047 2.942.017l-.063-2.307c-1.106.03-2.023.024-2.757-.015l-.121 2.305Zm2.942.017 6.787-.184-.063-2.307-6.787.184.063 2.307Zm6.787-.184a36.27 36.27 0 0 0 2.626-.153l-.233-2.296c-.673.068-1.49.116-2.456.142l.063 2.307Zm2.626-.153c.76-.077 1.445-.201 2.036-.385l-.683-2.204c-.402.125-.926.226-1.585.293l.232 2.296Zm2.036-.385c.6-.186 1.15-.453 1.6-.833l-1.49-1.763c-.15.128-.399.27-.793.392l.683 2.204Zm1.6-.833c.444-.376.78-.84 1.006-1.376l-2.128-.894a1.31 1.31 0 0 1-.367.507l1.49 1.763Zm1.001-1.365a5.56 5.56 0 0 0 .41-1.707l-2.298-.21c-.04.428-.123.755-.23 1l2.118.917Zm.41-1.71a17.26 17.26 0 0 0 .047-1.98l-2.307.062c.018.671.004 1.24-.039 1.713l2.299.206Zm.047-1.98-.034-1.266-2.307.062.034 1.266 2.307-.063Zm-1.22-2.388-10.147.274.063 2.307 10.147-.274-.062-2.307Zm-8.962 1.396-.057-2.109-2.307.063.057 2.108 2.307-.062Zm-1.18-.924 12.679-.342-.063-2.307-12.678.342.063 2.307Zm11.494-1.465.091 3.374 2.307-.062-.091-3.374-2.307.063Zm.091 3.374c.021.797-.01 1.503-.088 2.122l2.29.29c.096-.758.129-1.584.105-2.474l-2.307.062Zm-.087 2.12a4.894 4.894 0 0 1-.416 1.486l2.085.99a7.2 7.2 0 0 0 .62-2.183l-2.29-.293Zm-.419 1.492a3.226 3.226 0 0 1-.762 1.035l1.554 1.706a5.537 5.537 0 0 0 1.3-1.765l-2.092-.976Zm-.762 1.035c-.315.287-.748.557-1.328.79l.862 2.141c.777-.313 1.46-.715 2.02-1.225l-1.554-1.706Zm-1.316.786c-.577.225-1.301.409-2.186.54l.337 2.283c1.007-.149 1.907-.37 2.687-.673l-.838-2.15Zm-2.197.541c-.884.14-1.937.228-3.168.261l.063 2.307c1.3-.035 2.456-.13 3.464-.288l-.359-2.28Zm-3.168.261-6.787.183.062 2.307 6.787-.183-.062-2.307Zm-6.787.183c-1.504.04-2.737-.02-3.715-.171l-.351 2.28c1.159.18 2.54.241 4.128.198l-.062-2.307Zm-3.723-.172c-.976-.144-1.721-.373-2.27-.657l-1.06 2.05c.842.436 1.852.722 2.994.89l.336-2.283Zm-2.26-.651c-.555-.294-.95-.645-1.224-1.043l-1.9 1.312c.513.742 1.208 1.328 2.045 1.77l1.079-2.04Zm-1.217-1.033c-.299-.442-.54-.989-.71-1.658l-2.237.567c.224.885.564 1.685 1.034 2.382l1.913-1.29Zm-.707-1.646a13.497 13.497 0 0 1-.331-2.432l-2.304.124c.055 1.038.184 1.99.392 2.85l2.243-.542Zm-.331-2.432a122.73 122.73 0 0 1-.127-3.236l-2.307.062c.033 1.203.076 2.303.13 3.298l2.304-.124Zm-.127-3.236a121.958 121.958 0 0 1-.048-3.239h-2.308c0 .998.017 2.098.05 3.301l2.306-.062Zm-.048-3.239c0-.93.069-1.743.2-2.446l-2.27-.42a15.807 15.807 0 0 0-.238 2.867h2.308Zm.197-2.434c.133-.677.345-1.236.62-1.694l-1.98-1.186c-.433.721-.729 1.539-.905 2.435l2.265.445Zm.613-1.684c.25-.408.623-.774 1.157-1.087l-1.169-1.99c-.816.479-1.482 1.099-1.955 1.87l1.967 1.207ZM21.21 22.1c.53-.318 1.258-.59 2.222-.786l-.459-2.262c-1.135.23-2.13.577-2.95 1.069L21.21 22.1Zm2.23-.787c.968-.204 2.196-.331 3.7-.372l-.062-2.307c-1.589.043-2.965.18-4.112.42l.474 2.259Zm3.7-.372 6.774-.183-.062-2.307-6.774.183.062 2.307Zm6.774-.183c1.23-.033 2.287-.002 3.178.09l.234-2.296c-1.014-.104-2.174-.136-3.474-.1l.062 2.306Zm3.188.09c.89.083 1.624.228 2.212.422l.721-2.192c-.795-.262-1.706-.433-2.72-.527l-.213 2.298Zm2.225.426c.592.187 1.037.419 1.363.673l1.419-1.82c-.59-.46-1.295-.803-2.086-1.053l-.696 2.2Zm1.372.68c.347.265.613.572.81.924l2.013-1.13A5.306 5.306 0 0 0 42.1 20.12l-1.401 1.834Zm.818.937c.214.37.377.808.478 1.327l2.266-.44a6.538 6.538 0 0 0-.747-2.044l-1.997 1.157Zm.478 1.327c.108.556.175 1.193.194 1.915l2.307-.062a14.04 14.04 0 0 0-.236-2.294l-2.265.44Zm1.317.73-2.53.069.062 2.307 2.53-.069-.062-2.307Zm29.046 14.297.031 1.154 1.154-.031-.031-1.154-1.154.031Zm-2.53.069-1.154.03.032 1.154 1.153-.03-.031-1.154Zm-.185-5.376-1.151.076v.012l.002.012 1.15-.1Zm-.255-1.14-1.064.446.006.013.005.013 1.053-.473Zm-3.702-1.325-.035 1.153h.014l.021-1.153Zm-14.208.318-.032-1.154-1.153.031.031 1.154 1.154-.031Zm.216 8.012.031 1.154 1.154-.031-.032-1.154-1.153.031Zm-2.53.069-1.154.03.031 1.154 1.154-.03-.031-1.154Zm-.547-20.243-.031-1.154-1.154.032.032 1.153 1.153-.031Zm18.231-.32-.093 1.15h.01l.083-1.15Zm2.636.416-.323 1.108.004.001.319-1.109Zm1.616.774-.739.886.01.009.73-.895Zm.848 1.124-1.067.44.004.009.004.009 1.06-.457Zm.343 1.468-1.15.087v.01l.001.009 1.15-.106Zm-.022 4.037-1.14-.187-.001.012 1.14.175Zm-1.64 2.748.594.988.008-.004.007-.005-.61-.98Zm-1.739.6-.201-1.136.061 2.282.14-1.146Zm3.194 3-1.142.17.002.008.001.009 1.139-.187ZM51.42 29.681l-1.154.031.031 1.154 1.154-.032-.031-1.153Zm14.627-.448.084 1.151h.012l-.096-1.15Zm3.625-1.535-1.077-.415-.005.013-.005.013 1.087.389Zm.193-1.14-1.153-.036v.022l1.153.014Zm-.083-3.07-1.151.08v.012l.002.012 1.15-.104Zm-.252-1.035-1.044.49.006.014.007.014 1.031-.518Zm-1.781-1.007-.188 1.138.01.002.01.001.168-1.141Zm-1.916-.133-.009 1.154.009-1.154Zm-14.63.355-.03-1.153-1.154.03.03 1.154 1.154-.03Zm21.123 16.423-2.53.068.062 2.307 2.53-.068-.062-2.307Zm-1.346 1.19-.102-3.795-2.307.062.102 3.796 2.307-.063Zm-.102-3.795c-.017-.63-.045-1.18-.086-1.65l-2.3.201c.036.409.063.911.079 1.511l2.307-.062Zm-.084-1.625c-.037-.545-.143-1.067-.354-1.537l-2.106.945c.07.155.134.393.157.744l2.303-.152Zm-.343-1.512a2.803 2.803 0 0 0-1.035-1.26l-1.285 1.918a.499.499 0 0 1 .192.236l2.128-.894Zm-1.035-1.26c-.46-.308-1.022-.486-1.607-.593l-.414 2.27c.422.078.641.177.736.24l1.285-1.917Zm-1.607-.593c-.588-.107-1.294-.163-2.103-.178l-.042 2.308c.74.013 1.31.064 1.73.14l.415-2.27Zm-2.089-.177a51.893 51.893 0 0 0-2.901.01l.062 2.307a49.655 49.655 0 0 1 2.769-.01l.07-2.307Zm-2.901.01-11.373.307.062 2.307 11.373-.307-.062-2.307Zm-12.496 1.492.217 8.012 2.306-.062-.216-8.013-2.307.063Zm1.339 6.828-2.53.068.062 2.307 2.53-.068-.062-2.307Zm-1.346 1.19-.547-20.242-2.306.062.546 20.243 2.307-.063Zm-1.669-19.057 14.326-.387-.063-2.307-14.325.386.062 2.308Zm14.326-.387c1.521-.041 2.779-.019 3.78.062l.187-2.3c-1.113-.09-2.459-.112-4.03-.07l.063 2.308Zm3.791.063c1.02.074 1.81.204 2.396.374l.645-2.216c-.797-.232-1.763-.38-2.875-.46l-.166 2.302Zm2.4.375c.614.176.986.376 1.196.551l1.478-1.772c-.545-.455-1.25-.771-2.037-.997l-.637 2.218Zm1.207.56c.246.2.408.422.51.668l2.134-.877a3.974 3.974 0 0 0-1.187-1.58l-1.457 1.789Zm.517.687c.13.3.219.662.252 1.097l2.301-.174a5.695 5.695 0 0 0-.434-1.838l-2.119.915Zm.253 1.116c.047.514.08 1.09.097 1.73l2.307-.063a29.445 29.445 0 0 0-.106-1.878l-2.298.21Zm.097 1.73c.022.79-.018 1.459-.11 2.014l2.278.373c.12-.734.164-1.553.14-2.45l-2.308.063Zm-.111 2.026c-.08.52-.222.92-.402 1.225l1.987 1.173c.358-.606.581-1.298.696-2.049l-2.281-.349Zm-.402 1.225a2.068 2.068 0 0 1-.707.718l1.218 1.96a4.375 4.375 0 0 0 1.476-1.505l-1.987-1.173Zm-.693.71c-.305.183-.74.345-1.344.452l.403 2.273c.796-.142 1.52-.38 2.132-.749l-1.191-1.977ZM68.75 31.62c.611.075 1.01.212 1.257.357l1.17-1.99c-.61-.358-1.346-.56-2.146-.658l-.28 2.29Zm1.257.357c.264.155.452.347.589.584l1.999-1.154a3.887 3.887 0 0 0-1.418-1.42l-1.17 1.99Zm.589.584c.153.266.277.618.346 1.083l2.283-.34c-.103-.69-.304-1.332-.63-1.897l-2 1.154Zm.35 1.1a13.6 13.6 0 0 1 .156 1.818l2.307-.062a15.908 15.908 0 0 0-.187-2.13l-2.277.374Zm.156 1.818.103 3.796 2.307-.063-.103-3.795-2.307.062Zm-19.65-4.645 11.795-.319-.063-2.307-11.794.319.062 2.306Zm11.795-.319a64.356 64.356 0 0 0 2.885-.132l-.168-2.302a62.28 62.28 0 0 1-2.78.127l.063 2.307Zm2.897-.133c.804-.067 1.501-.166 2.077-.303l-.537-2.245c-.42.1-.992.186-1.733.248l.193 2.3Zm2.077-.303c.578-.138 1.13-.347 1.572-.68l-1.386-1.844c-.091.069-.305.18-.722.28l.536 2.244Zm1.572-.68c.45-.338.777-.785.966-1.313l-2.173-.778a.497.497 0 0 1-.179.247l1.386 1.845Zm.956-1.287c.184-.478.264-1 .27-1.54l-2.307-.03c-.004.34-.054.578-.116.74l2.153.83Zm.27-1.518c.016-.478.014-1.033-.003-1.663l-2.307.062c.016.6.017 1.108.004 1.528l2.306.073Zm-.003-1.663a24.701 24.701 0 0 0-.084-1.549l-2.298.21c.035.38.06.846.075 1.4l2.307-.061Zm-.082-1.524c-.036-.517-.145-1.022-.372-1.473L68.5 22.971c.052.104.11.29.132.597l2.302-.16Zm-.359-1.446a2.616 2.616 0 0 0-1.079-1.165l-1.152 2a.313.313 0 0 1 .143.147l2.088-.982Zm-1.079-1.165c-.455-.262-1.006-.408-1.578-.493l-.337 2.283c.435.064.664.152.763.21l1.152-2Zm-1.558-.49c-.585-.096-1.29-.142-2.096-.148l-.016 2.308c.74.005 1.314.048 1.736.117l.376-2.277Zm-2.096-.148a85.728 85.728 0 0 0-2.874.037l.063 2.307a83.293 83.293 0 0 1 2.794-.036l.017-2.308Zm-2.874.037-11.795.319.063 2.307 11.795-.319-.063-2.307ZM50.051 21.7l.216 8.013 2.307-.062-.216-8.013-2.307.062Zm51.244-3.493 1.153-.031-.031-1.154-1.153.031.031 1.154Zm.309 13.39-1.154-.01v.011h1.154Zm-.232 2.658-1.132-.223-.003.013 1.135.21Zm-2.291 3.557.584.995.01-.006-.594-.99Zm-2.6.914-.228-1.131-.01.002.238 1.129Zm-13.745.371.175-1.14-.007-.002-.168 1.142Zm-2.633-.773-.54 1.02.01.005.53-1.025Zm-1.633-1.407-.957.646.007.01.95-.656Zm-.873-2.02-1.121.271.003.012 1.118-.283Zm-.762-16.03-.031-1.153-1.154.03.031 1.154 1.154-.03Zm2.53-.068 1.154-.031-.031-1.154-1.154.031.031 1.154Zm.388 13.389-1.153.053.001.011 1.152-.064Zm.907 3.774-.929.685.006.007.005.007.918-.7Zm3.091 1.195-.074 1.152h.014l.06-1.152Zm11.611-.313.123 1.147.013-.001-.136-1.146Zm1.887-.46-.46-1.058-.007.003.467 1.055Zm1.689-2.42-1.136-.207v.007l-.002.008 1.138.193Zm.162-2.299 1.154-.008-1.154.008Zm-.062-3.269 1.153-.03v-.002l-1.153.032Zm-.287-10.12-.03-1.154-1.156.031.033 1.155 1.153-.033Zm1.39-.038.274 10.121 2.307-.062-.274-10.121-2.307.062Zm.274 10.121c.032 1.184.043 2.26.035 3.229l2.307.02a93.906 93.906 0 0 0-.035-3.311l-2.307.062Zm.035 3.239c0 .926-.073 1.735-.21 2.434l2.264.445c.172-.874.254-1.836.254-2.88l-2.308.001Zm-.213 2.447c-.124.673-.331 1.227-.604 1.681l1.98 1.186c.435-.725.727-1.547.894-2.447l-2.27-.42Zm-.604 1.681c-.242.405-.61.775-1.146 1.096l1.188 1.979c.813-.488 1.474-1.114 1.938-1.889l-1.98-1.186Zm-1.136 1.09c-.532.313-1.267.582-2.244.779l.456 2.262c1.14-.23 2.138-.57 2.956-1.05l-1.168-1.99Zm-2.254.781c-.959.203-2.182.33-3.686.37l.062 2.308c1.588-.043 2.96-.18 4.1-.42l-.476-2.258Zm-3.686.37-5.93.16.062 2.308 5.93-.16-.062-2.307Zm-5.93.16c-1.504.041-2.738-.02-3.716-.17l-.351 2.28c1.159.18 2.54.24 4.129.198l-.063-2.307Zm-3.723-.171c-.977-.144-1.722-.373-2.27-.657l-1.06 2.05c.842.435 1.851.721 2.993.89l.337-2.283Zm-2.26-.652c-.555-.293-.95-.645-1.225-1.042l-1.899 1.311c.513.742 1.207 1.328 2.044 1.771l1.08-2.04Zm-1.218-1.032c-.299-.443-.54-.99-.71-1.659l-2.237.567c.224.886.564 1.686 1.034 2.383l1.913-1.291Zm-.707-1.647a13.488 13.488 0 0 1-.33-2.431l-2.305.124c.056 1.038.184 1.99.392 2.85l2.243-.543Zm-.33-2.431c-.053-.971-.095-2.05-.127-3.237l-2.307.063c.032 1.203.075 2.302.129 3.298l2.304-.124Zm-.127-3.237-.274-10.121-2.306.062.273 10.122 2.307-.063Zm-1.396-8.936 2.53-.069-.062-2.307-2.53.069.062 2.307Zm1.346-1.191.273 10.121 2.307-.062-.273-10.121-2.307.062Zm.273 10.121c.034 1.27.073 2.367.115 3.29l2.306-.107c-.042-.903-.08-1.985-.114-3.245l-2.307.062Zm.116 3.302c.053.943.154 1.773.313 2.475l2.25-.507c-.12-.538-.21-1.233-.259-2.098l-2.304.13Zm.313 2.475c.162.722.42 1.38.817 1.92l1.857-1.372c-.15-.203-.306-.535-.423-1.055l-2.252.508Zm.828 1.933c.435.57 1.02.968 1.698 1.22l.806-2.162c-.336-.125-.538-.286-.669-.457l-1.835 1.4Zm1.698 1.22c.646.24 1.402.374 2.237.428l.15-2.303c-.698-.045-1.215-.15-1.581-.287l-.806 2.162Zm2.251.429c.816.042 1.798.047 2.94.016l-.061-2.307a35.92 35.92 0 0 1-2.758-.014l-.12 2.305Zm2.94.016 5.931-.16-.062-2.307-5.93.16.062 2.307Zm5.931-.16c1.135-.03 2.11-.088 2.923-.175l-.245-2.294c-.732.078-1.643.133-2.74.162l.062 2.307Zm2.936-.176c.838-.1 1.59-.273 2.218-.55l-.934-2.111c-.345.152-.851.286-1.555.369l.27 2.292Zm2.211-.548c.663-.288 1.227-.717 1.63-1.31l-1.908-1.298c-.12.178-.315.35-.643.492l.921 2.116Zm1.63-1.31c.383-.563.612-1.24.736-1.975l-2.275-.385c-.088.52-.228.854-.369 1.062l1.908 1.298Zm.734-1.96c.132-.721.188-1.565.181-2.515l-2.308.017c.006.86-.046 1.55-.144 2.083l2.271.416Zm.181-2.516c-.008-.923-.028-2.02-.063-3.29l-2.307.062c.034 1.26.055 2.342.062 3.246l2.308-.018Zm-.063-3.292-.286-10.121-2.307.065.286 10.121 2.307-.065Zm-1.409-8.935 2.544-.069-.062-2.307-2.544.069.062 2.307Zm29.044-1.939-.031-1.153-1.154.031.031 1.153 1.154-.03Zm2.53-.068 1.154-.031-.032-1.154-1.153.032.031 1.153Zm.547 20.243.031 1.153 1.153-.031-.031-1.154-1.153.032Zm-2.531.068-1.153.031.031 1.154 1.154-.032-.032-1.153Zm-.25-9.278 1.153-.031-.031-1.153-1.153.03.031 1.154Zm-18.556.501-.031-1.153-1.154.03.032 1.154 1.153-.03Zm.251 9.278.031 1.154 1.153-.032-.031-1.153-1.153.031Zm-2.531.068-1.153.032.031 1.153 1.153-.031-.031-1.154Zm-.546-20.242-.031-1.154-1.154.031.031 1.154 1.154-.031Zm2.53-.069 1.154-.03-.032-1.154-1.153.03.031 1.154Zm.239 8.857-1.153.03.031 1.154L109.54 28l-.031-1.154Zm18.556-.502.031 1.154 1.154-.031-.032-1.154-1.153.032Zm-.208-7.702 2.53-.069-.062-2.306-2.53.068.062 2.307Zm1.346-1.19.546 20.242 2.307-.063-.546-20.242-2.307.062Zm1.669 19.057-2.531.069.063 2.306 2.53-.068-.062-2.307Zm-1.346 1.19-.251-9.277-2.307.062.251 9.278 2.307-.062Zm-1.435-10.4-18.556.502.062 2.307 18.556-.501-.062-2.307Zm-19.678 1.686.25 9.278 2.307-.062-.25-9.278-2.307.062Zm1.372 8.094-2.53.068.062 2.307 2.531-.069-.063-2.306Zm-1.345 1.19-.547-20.242-2.307.062.547 20.243 2.307-.063Zm-1.669-19.058 2.53-.068-.062-2.307-2.53.068.062 2.307Zm1.346-1.19.239 8.856 2.307-.063-.239-8.856-2.307.063ZM109.54 28l18.556-.501-.062-2.307-18.556.501.062 2.307Zm19.678-1.686-.239-8.856-2.307.063.239 8.856 2.307-.063Z" fill="#456639"/><path d="m149.444 8 132-5-10 48-132 5 10-48Z" fill="#476B45"/><path d="m173.992 38.697-16.022.53-2.376 4.723-2.952.097 11.135-20.63 3.374-.112 12.477 19.848-2.952.098-2.684-4.554Zm-1.334-2.067-7.138-11.582-6.355 12.03 13.493-.448Zm34.511-14.651.336 10.12c.039 1.194.058 2.284.055 3.269.007.984-.065 1.87-.215 2.658-.141.787-.386 1.477-.736 2.069-.35.592-.861 1.093-1.533 1.502-.673.4-1.537.71-2.594.93-1.048.228-2.345.368-3.891.42l-5.929.196c-1.546.051-2.854-.002-3.923-.16-1.06-.15-1.939-.402-2.637-.757-.698-.364-1.245-.83-1.642-1.397-.389-.567-.683-1.239-.885-2.015a14.616 14.616 0 0 1-.378-2.639c-.059-.983-.108-2.072-.148-3.266l-.335-10.12 2.53-.084.335 10.12c.042 1.265.087 2.354.135 3.267.056.904.156 1.666.3 2.285.144.62.354 1.114.63 1.483.284.369.681.646 1.188.831.507.186 1.144.3 1.911.346a36.85 36.85 0 0 0 2.849-.002l5.929-.197a36.685 36.685 0 0 0 2.83-.186c.771-.096 1.399-.253 1.884-.471.494-.22.871-.522 1.131-.909.26-.386.441-.894.543-1.521.111-.628.16-1.395.148-2.3-.013-.915-.04-2.004-.082-3.269l-.349-10.119 2.543-.084Zm27.37-.908.07 2.108-10.12.336.601 18.13-2.53.084-.601-18.13-10.119.335-.07-2.108 22.769-.755Zm21.452-1.133c1.546-.051 2.849.002 3.91.16 1.069.15 1.952.406 2.65.77.698.355 1.241.816 1.629 1.384.388.567.679 1.24.872 2.015.201.777.332 1.656.39 2.639.068.983.122 2.071.162 3.266.039 1.195.058 2.284.055 3.27.006.984-.065 1.87-.215 2.658-.141.787-.386 1.477-.736 2.069-.35.592-.861 1.093-1.533 1.502-.673.4-1.538.71-2.594.93-1.048.228-2.345.368-3.891.42l-7.616.252c-1.546.05-2.854-.003-3.923-.16-1.06-.15-1.939-.402-2.637-.757-.698-.364-1.245-.83-1.642-1.397-.388-.567-.683-1.24-.885-2.015a14.534 14.534 0 0 1-.377-2.639c-.059-.983-.109-2.072-.148-3.266a120.27 120.27 0 0 1-.069-3.27c-.006-.984.061-1.87.202-2.657.15-.788.399-1.478.749-2.07.359-.592.874-1.089 1.547-1.489.672-.41 1.532-.724 2.58-.943 1.057-.228 2.358-.368 3.904-.42l7.616-.252Zm.629 18.974a36.103 36.103 0 0 0 2.817-.186c.77-.096 1.403-.253 1.897-.472.494-.218.871-.521 1.131-.908.259-.386.44-.894.543-1.521.102-.628.147-1.395.134-2.3-.003-.915-.026-2.004-.068-3.27a111.91 111.91 0 0 0-.148-3.252c-.048-.913-.143-1.68-.287-2.3-.144-.619-.358-1.113-.643-1.482-.285-.369-.681-.645-1.188-.831-.499-.186-1.136-.297-1.911-.332a31.784 31.784 0 0 0-2.836-.012l-7.616.253a32.284 32.284 0 0 0-2.843.2c-.762.086-1.39.239-1.884.458-.494.218-.871.52-1.131.908-.259.386-.44.894-.543 1.522-.102.627-.147 1.398-.134 2.312.012.906.04 1.99.082 3.256a165.3 165.3 0 0 0 .134 3.267c.057.904.157 1.665.3 2.285.144.62.354 1.114.63 1.483.285.368.681.645 1.188.83.508.186 1.144.302 1.911.346.775.036 1.725.036 2.849-.002l7.616-.252Z" fill="#BCBF7C"/><path d="m173.992 38.697.962-.567-.336-.572-.663.023.037 1.115Zm-16.022.53-.037-1.115-.663.022-.297.592.997.502Zm-2.376 4.723.037 1.116.662-.022.298-.592-.997-.502Zm-2.952.097-.982-.53-.924 1.71 1.943-.063-.037-1.117Zm11.135-20.63-.037-1.116-.641.022-.304.564.982.53Zm3.374-.112.945-.594-.341-.543-.641.021.037 1.116Zm12.477 19.848.037 1.116 1.943-.064-1.035-1.646-.945.594Zm-2.952.098-.962.567.337.57.662-.021-.037-1.116Zm-4.018-6.62.037 1.115 1.923-.064-1.01-1.638-.95.586Zm-7.138-11.583.951-.586-1.026-1.663-.912 1.727.987.522Zm-6.355 12.03-.987-.522-.899 1.701 1.923-.063-.037-1.116Zm14.79.502-16.022.532.074 2.232 16.022-.532-.074-2.231Zm-16.982 1.146-2.377 4.722 1.995 1.004 2.376-4.722-1.994-1.004Zm-1.416 4.108-2.952.097.074 2.233 2.952-.098-.074-2.232Zm-1.932 1.744 11.135-20.63-1.965-1.061-11.135 20.63 1.965 1.06Zm10.189-20.045 3.374-.112-.074-2.232-3.374.112.074 2.232Zm2.391-.633 12.477 19.847 1.891-1.188-12.477-19.848-1.891 1.189Zm13.386 18.137-2.952.098.074 2.232 2.952-.098-.074-2.232Zm-1.953.647-2.684-4.554-1.924 1.133 2.684 4.555 1.924-1.134Zm-4.03-6.64-7.137-11.582-1.902 1.172 7.138 11.582 1.901-1.172Zm-9.075-11.518-6.355 12.03 1.974 1.043 6.355-12.03-1.974-1.043Zm-5.331 13.668 13.493-.448-.074-2.232-13.493.448.074 2.232Zm47.967-16.215 1.116-.037-.037-1.116-1.116.037.037 1.116Zm.391 13.389-1.116-.003v.01l1.116-.007Zm-.215 2.658-1.097-.209-.002.012 1.099.197Zm-2.269 3.57.571.96.01-.005-.581-.954Zm-2.594.931-.227-1.093-.011.002.238 1.091Zm-13.743.456.163-1.105-.007-.001-.156 1.106Zm-2.637-.757-.516.99.01.005.506-.995Zm-1.642-1.397-.922.63.007.01.915-.64Zm-.885-2.015-1.084.27.003.01 1.081-.28Zm-.861-16.025-.037-1.116-1.116.037.037 1.116 1.116-.037Zm2.53-.084 1.116-.036-.037-1.117-1.116.038.037 1.116Zm.47 13.387-1.115.058.001.011 1.114-.07Zm.93 3.768-.895.669.006.007.005.007.884-.683Zm3.099 1.177-.065 1.114.013.001.052-1.115Zm11.608-.385.126 1.11.012-.002-.138-1.108Zm1.884-.471-.452-1.022-.006.003.458 1.019Zm1.674-2.43-1.1-.195-.001.008-.001.007 1.102.18Zm.148-2.3 1.116-.016-1.116.016Zm-.082-3.269 1.116-.037v-.002l-1.116.039Zm-.349-10.119-.037-1.116-1.117.037.038 1.117 1.116-.038Zm1.427-.047.336 10.12 2.232-.075-.336-10.12-2.232.075Zm.336 10.12c.039 1.183.057 2.26.055 3.229l2.233.005c.003-1-.016-2.104-.056-3.309l-2.232.074Zm.055 3.239c.006.928-.062 1.74-.196 2.443l2.194.417c.166-.873.242-1.833.235-2.874l-2.233.014Zm-.198 2.454c-.121.678-.326 1.238-.598 1.698l1.922 1.136c.428-.724.714-1.543.874-2.44l-2.198-.394Zm-.598 1.698c-.244.413-.614.788-1.153 1.116l1.162 1.908c.806-.491 1.458-1.117 1.913-1.888l-1.922-1.136Zm-1.143 1.11c-.535.319-1.272.593-2.25.797l.454 2.186c1.136-.236 2.127-.58 2.938-1.064l-1.142-1.919Zm-2.261.799c-.96.21-2.184.344-3.69.394l.074 2.232c1.587-.052 2.956-.197 4.091-.444l-.475-2.182Zm-3.69.394-5.929.197.074 2.232 5.929-.197-.074-2.232Zm-5.929.197c-1.505.05-2.741-.004-3.723-.149l-.326 2.21c1.157.17 2.536.224 4.123.17l-.074-2.231Zm-3.73-.15c-.98-.138-1.731-.364-2.287-.646l-1.012 1.99c.839.427 1.846.707 2.987.867l.312-2.211Zm-2.277-.641c-.561-.293-.963-.646-1.243-1.047l-1.83 1.28c.513.734 1.206 1.312 2.041 1.747l1.032-1.98Zm-1.237-1.037c-.304-.445-.551-.994-.725-1.666l-2.162.562c.229.88.572 1.675 1.044 2.365l1.843-1.261Zm-.722-1.654a13.55 13.55 0 0 1-.347-2.437l-2.229.134c.062 1.036.196 1.986.408 2.841l2.168-.538Zm-.347-2.437c-.058-.97-.107-2.05-.147-3.236l-2.232.074c.04 1.203.09 2.301.15 3.296l2.229-.134Zm-.147-3.236-.335-10.12-2.232.074.335 10.12 2.232-.074Zm-1.414-8.967 2.53-.083-.074-2.232-2.53.083.074 2.232Zm1.377-1.163.335 10.12 2.232-.074-.335-10.12-2.232.075Zm.335 10.12c.042 1.27.088 2.366.136 3.288l2.23-.117c-.047-.903-.092-1.985-.134-3.245l-2.232.074Zm.137 3.3c.058.941.164 1.768.326 2.467l2.176-.504c-.125-.54-.22-1.237-.274-2.103l-2.228.14Zm.326 2.467c.166.717.427 1.37.823 1.9l1.789-1.338c-.155-.207-.315-.544-.436-1.066l-2.176.504Zm.834 1.914c.433.56 1.015.95 1.689 1.197l.766-2.098c-.341-.124-.551-.288-.688-.465l-1.767 1.366Zm1.689 1.197c.642.235 1.395.363 2.229.411l.13-2.229c-.699-.041-1.221-.144-1.593-.28l-.766 2.098Zm2.242.412c.815.038 1.796.036 2.938-.001l-.074-2.232a35.722 35.722 0 0 1-2.761.002l-.103 2.231Zm2.938-.001 5.929-.197-.074-2.232-5.929.197.074 2.232Zm5.929-.197a37.735 37.735 0 0 0 2.919-.193l-.251-2.219a35.5 35.5 0 0 1-2.742.18l.074 2.232Zm2.931-.194c.835-.104 1.582-.281 2.204-.561l-.916-2.037c-.349.157-.858.294-1.564.382l.276 2.216Zm2.198-.558c.655-.29 1.211-.719 1.606-1.307l-1.854-1.245c-.125.185-.323.362-.656.51l.904 2.042Zm1.606-1.307c.375-.56.599-1.233.718-1.965l-2.204-.359c-.086.524-.224.865-.368 1.079l1.854 1.245Zm.715-1.95c.128-.72.178-1.56.165-2.51l-2.233.03c.012.863-.036 1.554-.131 2.091l2.199.39Zm.165-2.51c-.012-.923-.04-2.02-.082-3.29l-2.232.074c.042 1.26.069 2.342.081 3.247l2.233-.031Zm-.082-3.291-.349-10.12-2.232.077.349 10.12 2.232-.077Zm-1.428-8.965 2.543-.084-.074-2.232-2.543.084.074 2.232Zm29.876-2.108 1.116-.037-.037-1.116-1.116.037.037 1.116Zm.07 2.108.037 1.117 1.116-.037-.037-1.117-1.116.038Zm-10.12.336-.037-1.116-1.116.037.037 1.116 1.116-.037Zm.601 18.13.037 1.117 1.116-.037-.037-1.116-1.116.037Zm-2.53.084-1.116.038.037 1.115 1.116-.036-.037-1.116Zm-.601-18.13 1.116-.037-.037-1.116-1.116.037.037 1.116Zm-10.119.335-1.116.037.037 1.116 1.116-.037-.037-1.116Zm-.07-2.108-.037-1.116-1.116.037.037 1.116 1.116-.037Zm21.653-.718.07 2.108 2.232-.074-.07-2.108-2.232.074Zm1.149.956-10.12.335.074 2.232 10.12-.335-.074-2.232Zm-11.199 1.488.601 18.13 2.232-.073-.601-18.131-2.232.074Zm1.68 16.978-2.53.084.074 2.232 2.53-.084-.074-2.232Zm-1.377 1.163-.601-18.131-2.232.074.601 18.13 2.232-.073Zm-1.754-19.21-10.119.335.074 2.232 10.119-.335-.074-2.232Zm-8.966 1.414-.07-2.108-2.232.074.07 2.108 2.232-.074Zm-1.149-.955 22.769-.755-.074-2.232-22.769.755.074 2.232Zm48.094-2.843-.165 1.104.011.001.154-1.105Zm2.65.769-.516.99.01.005.506-.995Zm2.501 3.4-1.084.269.003.011 1.081-.28Zm.39 2.638-1.114.067.001.01 1.113-.077Zm.217 6.535-1.117-.002.001.01 1.116-.008Zm-.215 2.659-1.097-.209-.002.012 1.099.197Zm-2.269 3.57.571.96.009-.006-.58-.953Zm-2.594.93-.228-1.092-.01.002.238 1.09Zm-15.43.512.163-1.104-.007-.001-.156 1.105Zm-2.637-.756-.516.99.01.005.506-.995Zm-1.642-1.397-.922.63.007.01.915-.64Zm-.885-2.015-1.084.27.003.01 1.081-.28Zm-.392-11.833-1.097-.208-.002.012 1.099.197Zm.749-2.069-.955-.578-.006.01.961.568Zm1.547-1.489.571.96.009-.006-.58-.954Zm2.58-.943.229 1.093.007-.002-.236-1.09Zm14.966 18.116.126 1.11.012-.002-.138-1.108Zm3.705-5.201-1.116.005v.01l1.116-.015Zm-.216-6.522-1.115.058.001.011 1.114-.07Zm-.287-2.3-1.088.253 1.088-.252Zm-1.831-2.313-.39 1.046.007.003.383-1.049Zm-1.911-.332-.065 1.114.014.001.051-1.115Zm-13.295.44.127 1.11.011-.002-.138-1.108ZM241.91 27.7l1.116-.015-1.116.015Zm.216 6.523-1.115.058.001.011 1.114-.07Zm.93 3.768-.894.669.005.007.005.006.884-.682Zm3.099 1.176-.065 1.115h.013l.052-1.114Zm9.873-18.112c1.505-.05 2.736.004 3.708.149l.33-2.209c-1.15-.171-2.525-.225-4.112-.172l.074 2.232Zm3.719.15c.986.138 1.737.367 2.288.654l1.032-1.98c-.844-.44-1.86-.725-3.012-.885l-.308 2.211Zm2.298.66c.554.281.945.625 1.213 1.018l1.844-1.26c-.508-.743-1.203-1.321-2.044-1.75l-1.013 1.991Zm1.213 1.018c.302.442.544.987.71 1.655l2.167-.539c-.219-.884-.559-1.683-1.033-2.377l-1.844 1.261Zm.713 1.666c.18.693.301 1.498.357 2.425l2.229-.134c-.062-1.04-.201-1.992-.425-2.852l-2.161.561Zm.358 2.435c.066.967.119 2.042.159 3.226l2.232-.074a92.936 92.936 0 0 0-.164-3.306l-2.227.154Zm.159 3.226a92.91 92.91 0 0 1 .055 3.23l2.233.005c.002-1-.017-2.104-.056-3.31l-2.232.075Zm.055 3.24c.005.928-.062 1.74-.196 2.442l2.194.418c.166-.873.241-1.833.235-2.875l-2.233.015Zm-.198 2.454c-.122.678-.327 1.238-.599 1.698l1.923 1.136c.428-.724.713-1.543.874-2.44l-2.198-.394Zm-.599 1.698c-.243.412-.613.788-1.152 1.116l1.161 1.907c.806-.49 1.458-1.116 1.914-1.887l-1.923-1.136Zm-1.142 1.11c-.535.318-1.273.593-2.251.797l.455 2.186c1.135-.236 2.127-.581 2.938-1.064l-1.142-1.919Zm-2.261.799c-.96.209-2.185.344-3.69.394l.074 2.232c1.587-.053 2.956-.197 4.091-.444l-.475-2.182Zm-3.69.394-7.616.253.074 2.232 7.616-.253-.074-2.232Zm-7.616.253c-1.505.05-2.741-.004-3.723-.15l-.326 2.21c1.157.171 2.536.224 4.123.172l-.074-2.232Zm-3.73-.15c-.98-.138-1.731-.364-2.286-.646l-1.013 1.99c.84.427 1.847.706 2.987.867l.312-2.211Zm-2.277-.642c-.561-.292-.963-.645-1.243-1.046l-1.83 1.28c.513.734 1.206 1.312 2.041 1.747l1.032-1.98Zm-1.236-1.036c-.305-.445-.552-.995-.726-1.666l-2.162.562c.229.88.572 1.675 1.044 2.364l1.844-1.26Zm-.723-1.654a13.55 13.55 0 0 1-.347-2.437l-2.229.134c.062 1.036.196 1.985.408 2.841l2.168-.538Zm-.347-2.437a121.7 121.7 0 0 1-.146-3.236l-2.232.074c.04 1.202.089 2.301.149 3.296l2.229-.134Zm-.146-3.236c-.04-1.187-.062-2.267-.069-3.24l-2.233.015c.007.996.03 2.096.07 3.299l2.232-.074Zm-.069-3.24c-.005-.93.059-1.747.185-2.454l-2.198-.393c-.156.868-.226 1.824-.22 2.862l2.233-.015Zm.183-2.442c.129-.681.339-1.246.614-1.71l-1.923-1.136c-.425.72-.715 1.535-.885 2.429l2.194.417Zm.607-1.7c.252-.416.627-.788 1.163-1.108l-1.142-1.919c-.81.482-1.466 1.102-1.931 1.87l1.91 1.157Zm1.172-1.113c.533-.324 1.264-.602 2.229-.804l-.457-2.186c-1.131.237-2.121.588-2.933 1.082l1.161 1.908Zm2.236-.806c.97-.21 2.2-.345 3.705-.395l-.074-2.232c-1.587.053-2.959.197-4.103.445l.472 2.182Zm3.705-.395 7.616-.252-.074-2.232-7.616.252.074 2.232Zm8.245 18.722a37.59 37.59 0 0 0 2.906-.192l-.253-2.22a34.98 34.98 0 0 1-2.727.18l.074 2.232Zm2.918-.194c.836-.104 1.584-.281 2.211-.559l-.904-2.042c-.361.16-.878.297-1.583.385l.276 2.216Zm2.211-.559c.655-.29 1.21-.718 1.605-1.306l-1.853-1.245c-.125.185-.323.362-.656.51l.904 2.041Zm1.605-1.306c.376-.56.6-1.233.719-1.965l-2.204-.36c-.086.525-.225.866-.368 1.08l1.853 1.245Zm.719-1.965c.116-.713.162-1.549.149-2.494l-2.233.03c.012.865-.032 1.562-.12 2.105l2.204.36Zm.149-2.484c-.004-.928-.027-2.03-.069-3.301l-2.232.074c.041 1.258.064 2.336.068 3.237l2.233-.01Zm-.069-3.301a115.513 115.513 0 0 0-.149-3.286l-2.229.139c.055.89.104 1.963.146 3.22l2.232-.073Zm-.149-3.275c-.05-.953-.151-1.788-.314-2.492l-2.176.504c.124.535.214 1.232.26 2.105l2.23-.117Zm-.314-2.492c-.168-.723-.435-1.38-.847-1.913l-1.767 1.365c.157.204.318.535.438 1.052l2.176-.505Zm-.847-1.913c-.433-.561-1.016-.952-1.689-1.198l-.766 2.098c.341.125.551.288.688.465l1.767-1.365Zm-1.682-1.195c-.645-.24-1.406-.363-2.249-.402l-.103 2.231c.707.033 1.219.132 1.572.263l.78-2.092Zm-2.235-.401a32.899 32.899 0 0 0-2.939-.013l.074 2.232a30.691 30.691 0 0 1 2.734.01l.131-2.23Zm-2.939-.013-7.616.253.074 2.232 7.616-.253-.074-2.232Zm-7.616.253a33.34 33.34 0 0 0-2.943.207l.275 2.216c.726-.09 1.638-.155 2.742-.191l-.074-2.232Zm-2.932.206c-.831.095-1.579.267-2.21.547l.904 2.042c.357-.158.866-.291 1.559-.37l-.253-2.219Zm-2.21.547c-.655.29-1.21.718-1.605 1.306l1.853 1.245c.125-.185.323-.362.656-.51l-.904-2.041Zm-1.605 1.306c-.376.56-.6 1.233-.719 1.965l2.204.36c.086-.525.225-.866.368-1.08l-1.853-1.245Zm-.719 1.965c-.116.713-.162 1.554-.149 2.508l2.233-.031c-.012-.875.032-1.576.12-2.118l-2.204-.36Zm-.149 2.508c.013.914.04 2.007.082 3.277l2.233-.074a175.31 175.31 0 0 1-.082-3.234l-2.233.03Zm.082 3.277c.043 1.27.088 2.366.136 3.288l2.23-.117c-.047-.904-.092-1.985-.133-3.245l-2.233.074Zm.137 3.3c.058.941.164 1.768.326 2.467l2.176-.504c-.125-.54-.219-1.237-.273-2.103l-2.229.14Zm.326 2.467c.167.717.427 1.37.824 1.9l1.788-1.338c-.155-.207-.315-.544-.436-1.066l-2.176.504Zm.834 1.913c.433.561 1.016.952 1.689 1.198l.766-2.098c-.341-.125-.551-.288-.688-.465l-1.767 1.365Zm1.689 1.198c.642.235 1.395.362 2.229.411l.13-2.23c-.699-.04-1.22-.143-1.593-.279l-.766 2.098Zm2.242.412a37.72 37.72 0 0 0 2.938-.002l-.074-2.232a35.745 35.745 0 0 1-2.76.003l-.104 2.23Zm2.938-.002 7.616-.252-.074-2.232-7.616.252.074 2.232Z" fill="#BBB96C"/></svg>